# xmcd
#
# Track frame offsets:
#	150
#	15874
#	34619
#	48552
#	62325
#	82427
#	95259
#	111016
#	124556
#	138299
#	152282
#
# Disc length: 2217 seconds
#
# Revision: 0
# Processed by: cddbd v1.5.2PL0 Copyright (c) Steve Scherf et al.
# Submitted via: EZCDAudioConverter 1.3.4.1
#
DISCID=7a08a70b
DTITLE=谭咏麟 - 春....迟来的春天
DYEAR=1983
DGENRE=Pop
TTITLE0=迟来的春天
TTITLE1=与你心一致
TTITLE2=天降财神
TTITLE3=影子
TTITLE4=幻影
TTITLE5=风中劲草
TTITLE6=少爷威威
TTITLE7=小珊瑚
TTITLE8=一于少理
TTITLE9=俾我试一次
TTITLE10=我心只有您
EXTD=
EXTT0=
EXTT1=
EXTT2=
EXTT3=
EXTT4=
EXTT5=
EXTT6=
EXTT7=
EXTT8=
EXTT9=
EXTT10=
PLAYORDER=
